<?xml version="1.0" standalone="no"?>
<!DOCTYPE svg PUBLIC "-//W3C//DTD SVG 20010904//EN"
 "http://www.w3.org/TR/2001/REC-SVG-20010904/DTD/svg10.dtd">
<svg version="1.0" xmlns="http://www.w3.org/2000/svg"
 width="417.000000pt" height="405.000000pt" viewBox="0 0 417.000000 405.000000"
 preserveAspectRatio="xMidYMid meet">

<g transform="translate(0.000000,405.000000) scale(0.100000,-0.100000)"
fill="#000000" stroke="none">
<path d="M0 2025 l0 -2025 2085 0 2085 0 0 2025 0 2025 -2085 0 -2085 0 0
-2025z m2890 1878 c-30 -32 -57 -60 -60 -63 -3 -3 -70 -76 -148 -162 -79 -87
-146 -158 -149 -158 -5 0 18 26 217 244 74 81 144 158 155 171 11 13 24 24 30
24 5 1 -15 -25 -45 -56z m-701 -39 c2 -2 1 -10 -2 -19 -5 -12 -26 -15 -112
-15 -97 0 -105 1 -105 19 0 14 8 21 28 23 29 4 185 -3 191 -8z m-401 -38 c-2
-1 -50 -11 -107 -22 -86 -17 -104 -18 -108 -6 -9 22 7 30 107 50 95 19 95 19
103 -1 4 -11 6 -21 5 -21z m-398 -79 c0 -15 -167 -100 -181 -92 -21 13 -5 28
73 65 87 43 108 48 108 27z m-346 -172 c3 -10 -10 -25 -40 -46 -25 -17 -61
-45 -80 -62 -27 -23 -38 -27 -47 -18 -12 12 15 39 112 113 42 32 47 33 55 13z
m1474 -219 c45 -52 82 -97 82 -100 0 -10 -578 -659 -910 -1021 -85 -93 -216
-237 -290 -320 -327 -364 -404 -449 -545 -603 -82 -90 -158 -175 -168 -188
-10 -13 -24 -24 -30 -24 -11 0 -158 161 -165 181 -2 5 16 31 40 57 23 27 126
140 228 253 102 112 278 308 390 434 112 127 268 300 345 385 168 184 544 603
769 857 88 100 163 182 166 182 3 1 43 -41 88 -93z m756 -18 c-17 -18 -129
-143 -249 -278 -452 -507 -541 -606 -580 -645 -68 -69 60 77 305 350 74 83
171 191 215 240 184 207 328 365 333 365 3 0 -8 -15 -24 -32z m-2637 -112
c-29 -33 -70 -83 -91 -109 -26 -33 -42 -45 -49 -38 -11 11 34 79 116 174 39
46 52 55 63 46 11 -9 4 -23 -39 -73z m3092 -278 c44 -51 81 -95 81 -99 0 -3
-62 -75 -137 -159 -76 -85 -223 -251 -328 -370 -284 -323 -614 -692 -939
-1050 -88 -96 -178 -195 -200 -219 l-40 -45 -79 85 c-43 46 -82 91 -87 99 -6
11 61 91 259 311 548 609 862 959 1011 1129 286 325 362 410 370 410 4 0 44
-42 89 -92z m-3425 -214 c-54 -115 -49 -108 -68 -101 -13 5 -10 19 18 85 57
134 66 147 82 130 13 -12 8 -27 -32 -114z m3736 -268 c11 -38 17 -73 14 -77
-15 -25 -32 2 -63 102 -30 93 -33 112 -20 119 17 11 39 -36 69 -144z m-3854
-12 c-6 -17 -30 -99 -46 -161 -8 -31 -16 -43 -29 -43 -16 0 -17 5 -10 45 4 24
18 78 30 119 20 69 24 74 41 65 11 -6 17 -17 14 -25z m2188 -126 c-17 -18 -47
-51 -66 -73 -20 -22 -129 -146 -244 -276 -115 -129 -302 -341 -415 -470 -114
-129 -215 -243 -226 -254 -10 -11 -72 -81 -138 -156 -246 -278 -449 -505 -474
-529 -43 -43 0 8 170 199 90 102 200 226 244 275 44 50 154 174 245 276 91
102 212 239 270 305 275 314 651 735 657 735 4 0 -7 -15 -23 -32z m1710 -165
c2 -10 7 -49 11 -88 3 -38 8 -89 11 -112 5 -38 3 -43 -14 -43 -21 0 -23 8 -37
160 -4 36 -9 73 -11 83 -4 12 0 17 15 17 11 0 22 -8 25 -17z m-3979 -245 c-7
-131 -13 -157 -34 -144 -12 8 -14 73 -4 194 5 73 8 82 26 82 19 0 19 -5 12
-132z m3979 -325 c-24 -169 -29 -188 -50 -191 -19 -3 -19 -1 -6 105 18 136 17
133 42 133 20 0 21 -4 14 -47z m-3946 -190 c12 -60 25 -118 28 -130 5 -19 2
-23 -14 -23 -18 0 -24 15 -48 114 -26 114 -27 146 -2 146 9 0 21 -38 36 -107z
m3842 -178 c0 -8 -17 -58 -37 -111 -33 -86 -54 -117 -69 -101 -3 3 12 55 33
116 29 84 42 111 56 111 9 0 17 -7 17 -15z m-3655 -292 c41 -87 51 -134 26
-119 -12 8 -86 143 -96 175 -6 20 5 39 22 41 1 0 22 -44 48 -97z m1679 -25
c-18 -30 -536 -602 -557 -615 -7 -4 17 24 51 62 255 279 488 540 495 551 4 8
10 14 13 14 3 0 2 -6 -2 -12z m1790 -65 c0 -26 -104 -173 -121 -173 -22 0 -14
20 45 110 55 86 78 104 76 63z m-274 -348 c0 -7 -36 -50 -81 -96 -57 -58 -83
-79 -91 -71 -8 8 13 36 72 101 78 84 100 99 100 66z m-2624 -237 c52 -45 94
-85 94 -89 0 -19 -29 -13 -66 13 -61 43 -147 134 -140 147 4 6 9 11 12 11 3 0
48 -37 100 -82z"/>
</g>
</svg>
